<?xml version="1.0" standalone="no"?>
<!DOCTYPE svg PUBLIC "-//W3C//DTD SVG 20010904//EN"
 "http://www.w3.org/TR/2001/REC-SVG-20010904/DTD/svg10.dtd">
<svg version="1.0" xmlns="http://www.w3.org/2000/svg"
 width="360.000000pt" height="360.000000pt" viewBox="0 0 360.000000 360.000000"
 preserveAspectRatio="xMidYMid meet">
<metadata>
Created by potrace 1.14, written by Peter Selinger 2001-2017
</metadata>
<g transform="translate(0.000000,360.000000) scale(0.100000,-0.100000)"
fill="#000000" stroke="none">
<path d="M1836 3521 c-3 -4 -17 -6 -31 -4 -13 3 -43 -2 -66 -11 -23 -10 -65
-16 -93 -16 -66 2 -118 -10 -185 -43 -30 -15 -61 -27 -68 -27 -7 0 -23 -10
-35 -22 -36 -37 -68 -50 -85 -37 -10 9 -19 9 -37 -1 -13 -7 -28 -10 -34 -6 -5
3 -34 -3 -65 -14 -30 -11 -71 -19 -91 -18 -20 1 -42 -4 -48 -10 -15 -15 -92
-15 -175 -1 l-63 11 -50 -38 c-28 -21 -50 -44 -50 -51 0 -8 -15 -41 -32 -75
-45 -84 -55 -100 -65 -107 -15 -10 -49 -63 -87 -134 -60 -114 -68 -162 -70
-432 -2 -194 -5 -252 -20 -303 -9 -35 -21 -71 -25 -80 -38 -76 -51 -120 -61
-202 -6 -52 -16 -107 -21 -121 -8 -19 -3 -59 16 -155 15 -71 30 -136 35 -144
4 -8 15 -64 25 -125 10 -60 21 -114 25 -120 8 -11 23 -75 41 -178 10 -62 10
-70 -7 -89 -11 -11 -29 -24 -41 -29 -20 -7 -23 -16 -23 -62 0 -69 15 -112 56
-160 18 -21 35 -51 39 -65 3 -15 17 -38 30 -52 13 -14 33 -50 44 -81 12 -31
32 -66 46 -79 14 -13 25 -35 25 -49 0 -14 12 -44 25 -66 14 -22 25 -49 25 -61
0 -22 -29 -54 -48 -54 -7 0 -12 -2 -12 -4 0 -8 43 -80 57 -97 8 -9 24 -36 36
-60 l22 -44 910 -3 910 -2 19 35 c10 19 27 37 37 40 11 4 19 13 19 22 0 8 6
13 13 11 6 -3 16 -28 21 -56 l9 -52 58 0 59 0 0 34 c0 18 7 39 15 46 17 14 20
66 5 75 -5 3 -10 13 -10 21 0 17 72 93 104 111 11 6 34 37 51 69 32 62 74 93
126 94 26 0 69 36 69 58 0 18 -37 33 -65 26 -14 -3 -25 -2 -25 3 0 14 34 43
51 43 8 1 32 12 54 25 22 14 54 31 70 40 17 8 37 19 45 24 73 43 184 55 238
24 33 -19 62 -12 62 15 0 17 -28 52 -42 52 -3 0 -22 7 -42 15 l-37 16 21 27
c27 34 57 51 92 52 34 0 53 30 35 54 -17 24 -125 60 -140 48 -7 -6 -35 -8 -64
-5 -46 5 -53 9 -62 34 -14 40 -36 45 -87 21 l-44 -22 -21 21 -21 21 21 22 c21
20 23 20 35 3 11 -14 22 -16 54 -11 45 7 63 31 38 50 -9 6 -16 18 -16 27 0 8
-47 64 -105 125 -58 60 -122 130 -143 156 -20 25 -42 46 -48 46 -12 0 -13 168
-1 187 8 13 -16 107 -32 127 -5 6 -12 68 -15 138 -2 70 -9 135 -15 146 -6 11
-10 55 -10 97 1 57 -3 81 -15 94 -13 14 -16 44 -17 152 0 74 -3 152 -7 174 -8
39 -9 40 -45 37 -42 -3 -50 14 -12 28 23 9 25 14 25 73 0 35 -4 67 -9 73 -5 5
-12 33 -15 62 -3 28 -9 76 -12 105 -4 37 -13 60 -33 82 -49 53 -91 112 -84
118 3 3 2 14 -2 24 -5 10 -7 26 -6 35 1 9 -16 35 -38 56 -36 35 -40 43 -34 75
5 31 1 40 -24 66 -18 18 -45 32 -69 36 -21 3 -49 11 -62 16 -15 6 -30 5 -42
-1 -22 -12 -40 7 -19 21 9 5 1 8 -21 8 -19 0 -71 4 -115 10 -51 6 -81 7 -83 0
-4 -9 -54 -39 -67 -39 -16 0 -1 29 21 39 15 6 25 13 23 15 -11 11 -155 15
-191 6 -29 -8 -44 -8 -51 -1 -13 13 -44 14 -51 2z"/>
</g>
</svg>
